<?xml version="1.0" encoding="UTF-8"?>
<svg width="1024" height="1024" viewBox="0 0 1024 1024" fill="none" xmlns="http://www.w3.org/2000/svg" role="img" aria-label="Yunque">
  <defs>
    <linearGradient id="bg" x1="0" y1="0" x2="1024" y2="1024" gradientUnits="userSpaceOnUse">
      <stop offset="0" stop-color="#4F9BFF"/>
      <stop offset="0.55" stop-color="#3B82F6"/>
      <stop offset="1" stop-color="#2563EB"/>
    </linearGradient>
    <linearGradient id="bird" x1="256" y1="288" x2="768" y2="768" gradientUnits="userSpaceOnUse">
      <stop offset="0" stop-color="#FFFFFF"/>
      <stop offset="1" stop-color="#EAF2FF"/>
    </linearGradient>
  </defs>

  <!-- App tile: modern rounded squircle, transparent corners -->
  <rect x="0" y="0" width="1024" height="1024" rx="232" ry="232" fill="url(#bg)"/>

  <!-- Brand mark: the lucide "Bird" glyph used in the app title bar, scaled up
       and centered on the tile. Stroke-based so it stays crisp at every size.
       Source grid is 24x24; we map it to a centered ~560px area on the 1024 tile. -->
  <g transform="translate(246,246) scale(22.16)"
     fill="none" stroke="#FFFFFF" stroke-width="2.05"
     stroke-linecap="round" stroke-linejoin="round">
    <path d="M16 7h.01"/>
    <path d="M3.4 18H12a8 8 0 0 0 8-8V7a4 4 0 0 0-7.28-2.3L2 20"/>
    <path d="m20 7 2 .5-2 .5"/>
    <path d="M10 18v3"/>
    <path d="M14 17.75V21"/>
    <path d="M7 18a6 6 0 0 0 3.84-10.61"/>
  </g>
</svg>
